<?xml version="1.0" standalone="no"?>
<!DOCTYPE svg PUBLIC "-//W3C//DTD SVG 20010904//EN"
 "http://www.w3.org/TR/2001/REC-SVG-20010904/DTD/svg10.dtd">
<svg version="1.0" xmlns="http://www.w3.org/2000/svg"
 width="373.000000pt" height="373.000000pt" viewBox="0 0 373.000000 373.000000"
 preserveAspectRatio="xMidYMid meet">
<metadata>
Created by potrace 1.11, written by Peter Selinger 2001-2013
</metadata>
<g transform="translate(0.000000,373.000000) scale(0.100000,-0.100000)"
fill="#000000" stroke="none">
<path d="M0 1865 l0 -1865 1865 0 1865 0 0 1865 0 1865 -1865 0 -1865 0 0
-1865z m1840 1233 c0 -2 -7 -28 -15 -58 -22 -84 -26 -80 74 -80 l89 0 17 70
17 70 94 0 c52 0 94 -3 94 -7 0 -5 -7 -33 -15 -63 -8 -30 -15 -59 -15 -63 0
-4 41 -6 92 -5 l92 3 16 65 16 65 87 3 c48 1 87 -1 87 -5 0 -4 -16 -69 -35
-143 l-34 -135 -95 -90 -95 -90 -111 -438 c-60 -240 -110 -439 -110 -442 0 -3
120 -4 266 -3 l267 3 20 28 c19 24 20 32 10 70 -30 112 -119 344 -139 364 -21
21 -32 23 -134 23 -69 0 -110 4 -110 10 0 6 12 58 26 115 l26 105 140 0 c145
0 174 -7 211 -47 9 -11 58 -134 108 -274 86 -241 91 -257 86 -319 -7 -112 -81
-225 -181 -278 l-51 -27 -376 -3 c-369 -3 -376 -3 -402 18 -16 13 -27 31 -27
46 0 13 34 159 75 324 41 165 75 302 75 305 0 3 -37 5 -82 3 l-82 -3 -72 -292
c-40 -160 -80 -307 -89 -327 -11 -23 -31 -42 -59 -56 -40 -19 -60 -20 -397
-20 -348 0 -356 0 -399 23 -68 33 -92 82 -88 177 5 113 28 150 278 440 274
317 263 310 459 310 76 0 140 -2 143 -5 3 -3 -7 -54 -21 -113 l-27 -107 -120
-5 c-65 -3 -129 -10 -140 -17 -33 -19 -338 -381 -348 -414 -18 -58 -12 -60
277 -57 l261 3 108 430 c59 237 108 438 108 447 0 9 -22 53 -49 98 l-48 81 36
144 35 145 88 0 c49 0 88 -1 88 -2z m-1082 -2072 c107 -56 132 -215 46 -301
-40 -40 -86 -55 -170 -55 -47 0 -63 4 -68 16 -12 32 -7 339 7 353 16 17 144 8
185 -13z m532 -62 l0 -75 31 23 c58 43 151 21 185 -43 20 -39 18 -98 -6 -136
-59 -97 -209 -75 -240 36 -14 51 -13 254 2 269 21 21 28 2 28 -74z m330 -74
c0 -162 3 -180 30 -180 11 0 22 -5 26 -11 11 -18 -13 -32 -41 -25 -43 11 -55
56 -55 214 0 132 8 171 32 156 4 -3 8 -72 8 -154z m893 147 c65 -28 84 -85 43
-134 -26 -31 -26 -32 -6 -38 23 -7 50 -53 50 -85 0 -34 -28 -79 -60 -95 -22
-12 -53 -15 -113 -13 l-82 3 -3 175 c-1 96 0 180 2 187 7 18 127 17 169 0z
m-735 -21 c6 -29 -15 -43 -35 -24 -14 14 -14 20 -3 33 16 19 34 15 38 -9z
m267 -90 c49 -21 65 -59 65 -160 0 -51 -4 -88 -11 -92 -20 -12 -29 19 -29 103
0 72 -3 85 -22 103 -26 24 -84 27 -116 4 -20 -14 -22 -24 -22 -102 0 -88 -9
-120 -29 -108 -7 5 -11 51 -11 132 0 101 3 124 14 124 8 0 17 -4 21 -9 3 -6
19 -4 38 4 41 18 60 18 102 1z m1113 -12 c24 -15 30 -44 10 -44 -7 0 -22 7
-32 15 -28 21 -93 19 -105 -2 -16 -30 5 -51 64 -63 38 -8 61 -19 75 -37 27
-35 25 -49 -10 -85 -29 -28 -35 -30 -86 -26 -38 3 -62 11 -76 25 -33 33 -13
45 33 21 33 -17 48 -19 77 -12 30 7 37 14 37 34 0 27 -22 41 -93 60 -48 13
-69 42 -58 85 13 51 104 67 164 29z m-2198 -68 c0 -68 4 -88 20 -109 26 -33
70 -43 108 -23 38 20 42 31 42 132 0 77 2 84 20 84 19 0 20 -7 20 -124 0 -125
-9 -158 -34 -125 -9 13 -15 13 -36 2 -57 -29 -135 -7 -159 44 -15 31 -27 163
-18 187 4 9 13 16 22 16 12 0 15 -15 15 -84z m810 -46 c0 -109 -2 -130 -15
-130 -13 0 -15 21 -15 130 0 109 2 130 15 130 13 0 15 -21 15 -130z m930 50
c0 -94 12 -125 53 -140 38 -13 92 3 107 30 6 10 10 58 10 105 0 77 2 86 18 83
15 -3 17 -18 20 -122 3 -123 -6 -159 -32 -125 -10 15 -15 15 -36 3 -59 -32
-142 -6 -166 51 -14 35 -20 176 -7 188 3 4 12 7 20 7 10 0 13 -20 13 -80z"/>
<path d="M1992 2754 c-18 -14 -39 -38 -47 -54 -13 -25 -42 -124 -59 -202 l-6
-28 84 0 84 0 20 78 c37 143 37 176 -3 215 -22 23 -34 21 -73 -9z"/>
<path d="M600 860 l0 -150 61 0 c73 0 109 18 138 70 40 71 19 163 -48 207 -26
17 -48 23 -92 23 l-59 0 0 -150z"/>
<path d="M1325 877 c-17 -14 -28 -36 -32 -63 -5 -36 -1 -46 25 -75 25 -28 37
-34 72 -34 57 0 90 37 90 101 0 36 -5 50 -26 69 -35 33 -93 34 -129 2z"/>
<path d="M2380 950 l0 -60 58 0 c70 0 102 19 102 60 0 41 -32 60 -102 60 l-58
0 0 -60z"/>
<path d="M2380 780 l0 -70 70 0 c81 0 110 19 110 70 0 51 -29 70 -110 70 l-70
0 0 -70z"/>
</g>
</svg>
